<svg width="20" height="21" viewBox="0 0 20 21" fill="none" xmlns="http://www.w3.org/2000/svg">
<path d="M10 0.5C4.47833 0.5 0 5.09069 0 10.7528C0 15.2828 2.865 19.1259 6.83917 20.4819C7.33833 20.5767 7.5 20.2589 7.5 19.9889V18.0801C4.71833 18.7004 4.13917 16.8703 4.13917 16.8703C3.68417 15.6853 3.02833 15.37 3.02833 15.37C2.12083 14.7335 3.0975 14.7471 3.0975 14.7471C4.10167 14.8189 4.63 15.804 4.63 15.804C5.52167 17.371 6.96917 16.9182 7.54 16.6559C7.62917 15.9937 7.88833 15.5409 8.175 15.2854C5.95417 15.0248 3.61917 14.1456 3.61917 10.2179C3.61917 9.09783 4.01 8.18362 4.64917 7.46593C4.54583 7.20704 4.20333 6.16382 4.74667 4.75235C4.74667 4.75235 5.58667 4.47723 7.4975 5.80326C8.295 5.57599 9.15 5.46236 10 5.45808C10.85 5.46236 11.7058 5.57599 12.505 5.80326C14.4142 4.47723 15.2525 4.75235 15.2525 4.75235C15.7967 6.16467 15.4542 7.2079 15.3508 7.46593C15.9925 8.18362 16.38 9.09868 16.38 10.2179C16.38 14.1559 14.0408 15.0231 11.8142 15.2769C12.1725 15.5947 12.5 16.2184 12.5 17.1753V19.9889C12.5 20.2614 12.66 20.5818 13.1675 20.481C17.1383 19.1234 20 15.2811 20 10.7528C20 5.09069 15.5225 0.5 10 0.5Z" fill="black"/>
</svg>
