<svg width="65" height="25" viewBox="0 0 65 25" fill="none" xmlns="http://www.w3.org/2000/svg">
<g clip-path="url(#clip0_153_1025)">
<path d="M33.5583 8.92367L36.6507 8.72461C36.7212 9.2281 36.8506 9.60279 37.0622 9.87209C37.4032 10.2936 37.8736 10.5044 38.4967 10.5044C38.9553 10.5044 39.3198 10.399 39.5668 10.1765C39.8019 10.0009 39.943 9.71987 39.943 9.42715C39.943 9.14614 39.8137 8.87683 39.5903 8.7012C39.3551 8.49044 38.8025 8.27968 37.9324 8.09233C36.5096 7.77619 35.4866 7.35467 34.8869 6.81606C34.2873 6.31257 33.9463 5.57491 33.9698 4.79041C33.9698 4.2518 34.1344 3.71319 34.4401 3.26825C34.7929 2.76476 35.275 2.36666 35.8511 2.14419C36.4743 1.87488 37.3444 1.73438 38.438 1.73438C39.7784 1.73438 40.8014 1.98026 41.5069 2.48375C42.2124 2.97552 42.6357 3.77173 42.765 4.86066L39.7079 5.0363C39.6255 4.56794 39.4609 4.22838 39.1905 4.00591C38.92 3.78344 38.5673 3.67806 38.1087 3.67806C37.7325 3.67806 37.4503 3.76002 37.2621 3.91224C37.0857 4.05275 36.9682 4.26351 36.9799 4.49769C36.9799 4.67332 37.074 4.83724 37.2151 4.94263C37.3679 5.08313 37.7325 5.21193 38.3086 5.32902C39.7314 5.63345 40.7426 5.93789 41.3658 6.25403C41.989 6.57017 42.4358 6.95656 42.7062 7.41321C42.9884 7.88157 43.1295 8.42018 43.1178 8.9705C43.1178 9.6262 42.9296 10.2819 42.5534 10.8322C42.1653 11.406 41.6245 11.8509 40.9895 12.1202C40.3193 12.4129 39.4727 12.5651 38.4615 12.5651C36.6742 12.5651 35.4396 12.2256 34.7458 11.5348C34.0521 10.8439 33.6406 9.97747 33.5583 8.92367ZM0.740774 12.3895V1.92172H6.16136C7.16082 1.92172 7.93687 2.00368 8.46599 2.17931C8.98336 2.34324 9.44193 2.6828 9.74765 3.13945C10.0886 3.64293 10.2533 4.22838 10.2415 4.83724C10.2768 5.86763 9.74765 6.85118 8.84226 7.36638C8.48951 7.56543 8.10148 7.70594 7.7017 7.77619C7.99566 7.85815 8.28962 7.99866 8.5483 8.16259C8.74819 8.32651 8.91281 8.51385 9.06567 8.71291C9.24204 8.91196 9.3949 9.13443 9.52424 9.36861L11.0999 12.4012H7.40774L5.66751 9.18126C5.4441 8.77145 5.25597 8.50214 5.0796 8.37335C4.84443 8.20942 4.56223 8.12746 4.28003 8.12746H3.99783V12.3778H0.740774V12.3895ZM3.99783 6.16036H5.37355C5.66751 6.13694 5.94971 6.0901 6.23191 6.01985C6.44356 5.98472 6.63169 5.86763 6.76104 5.692C7.07851 5.27048 7.03148 4.67332 6.64345 4.31034C6.4318 4.13471 6.02026 4.04104 5.43234 4.04104H3.99783V6.16036ZM0 21.3586L3.09244 21.1595C3.16299 21.663 3.29233 22.0377 3.50398 22.307C3.83321 22.7285 4.3153 22.951 4.9385 22.951C5.39707 22.951 5.76158 22.8456 6.0085 22.6231C6.24367 22.4358 6.38477 22.1665 6.38477 21.8738C6.38477 21.5927 6.25543 21.3234 6.03202 21.1478C5.79685 20.937 5.24421 20.7263 4.36234 20.5389C2.93958 20.2228 1.91661 19.8013 1.31693 19.2627C0.717258 18.7592 0.376266 18.0215 0.399783 17.237C0.399783 16.6984 0.564399 16.1598 0.870116 15.7149C1.22287 15.2114 1.70496 14.8133 2.28111 14.5908C2.90431 14.3215 3.77442 14.181 4.86795 14.181C6.20839 14.181 7.23137 14.4269 7.93687 14.9304C8.64237 15.4338 9.05391 16.2183 9.18325 17.3073L6.12609 17.4829C6.04378 17.0145 5.87916 16.675 5.60872 16.4525C5.35004 16.23 4.98553 16.1247 4.52695 16.1364C4.15069 16.1364 3.86849 16.2183 3.68035 16.3823C3.49222 16.5228 3.3864 16.7335 3.39815 16.9677C3.39815 17.1433 3.49222 17.3073 3.63332 17.4127C3.78618 17.5532 4.15069 17.682 4.72685 17.799C6.1496 18.1035 7.16082 18.4079 7.78401 18.7241C8.4072 19.0402 8.85402 19.4266 9.12446 19.8832C9.40666 20.3516 9.54776 20.8902 9.54776 21.4288C9.54776 22.0845 9.34787 22.7285 8.98336 23.2788C8.59533 23.8526 8.05445 24.2975 7.4195 24.5668C6.74928 24.8595 5.90268 25.0118 4.89146 25.0118C3.1042 25.0118 1.86957 24.6722 1.17583 23.9814C0.482091 23.2788 0.0940666 22.4124 0 21.3586H0Z" fill="black"/>
<path d="M15.6386 20.5386L18.4841 21.3934C18.3313 22.1076 18.0138 22.7867 17.5787 23.3839C17.179 23.9108 16.6498 24.3206 16.0502 24.5899C15.4387 24.8592 14.6627 24.9997 13.722 24.9997C12.5815 24.9997 11.6408 24.8358 10.9235 24.508C10.1945 24.1801 9.57133 23.5947 9.0422 22.7633C8.51308 21.932 8.25439 20.8665 8.25439 19.5668C8.25439 17.8339 8.71297 16.499 9.64188 15.574C10.5708 14.649 11.876 14.1807 13.5692 14.1807C14.8978 14.1807 15.9326 14.45 16.6969 14.9769C17.4494 15.5155 18.0138 16.3351 18.3901 17.4357L15.521 18.068C15.4505 17.8221 15.3447 17.5763 15.2036 17.3655C15.0272 17.1196 14.8038 16.9323 14.5333 16.7918C14.2629 16.6513 13.9572 16.5927 13.6515 16.5927C12.9107 16.5927 12.3463 16.8854 11.9583 17.4826C11.6643 17.9158 11.5115 18.6066 11.5115 19.5434C11.5115 20.7025 11.6878 21.4988 12.0406 21.932C12.3933 22.3652 12.8872 22.576 13.5339 22.576C14.1571 22.576 14.6274 22.4003 14.9449 22.0608C15.2624 21.6978 15.4975 21.1943 15.6386 20.5386ZM22.2821 14.3563H25.5274V18.0212H29.0784V14.3563H32.3472V24.8241H29.0784V20.5855H25.5274V24.8241H22.2821V14.3563Z" fill="black"/>
<path d="M31.9004 19.5902C31.9004 17.8807 32.3825 16.5459 33.3349 15.5974C34.2873 14.649 35.6278 14.1689 37.3327 14.1689C39.0847 14.1689 40.4252 14.6373 41.3776 15.574C42.33 16.5107 42.8004 17.8221 42.8004 19.5082C42.8004 20.7377 42.5887 21.7329 42.1772 22.5174C41.7774 23.2902 41.1542 23.9225 40.3899 24.344C39.6021 24.7772 38.6262 24.9997 37.4621 24.9997C36.2745 24.9997 35.2985 24.8124 34.5225 24.4377C33.7229 24.0396 33.0645 23.419 32.6294 22.6579C32.1473 21.8383 31.9004 20.8196 31.9004 19.5902ZM35.1457 19.6019C35.1457 20.6557 35.3456 21.4168 35.7336 21.8851C36.1216 22.3418 36.6625 22.576 37.3445 22.576C38.0382 22.576 38.5791 22.3535 38.9671 21.8968C39.3552 21.4402 39.5433 20.6323 39.5433 19.4614C39.5433 18.4778 39.3434 17.7519 38.9436 17.3069C38.5438 16.8503 38.003 16.6278 37.321 16.6278C36.7213 16.6044 36.1451 16.862 35.7454 17.3187C35.3456 17.7753 35.1457 18.5364 35.1457 19.6019ZM46.128 19.5902C46.128 17.8807 46.6101 16.5459 47.5625 15.5974C48.5149 14.649 49.8553 14.1689 51.5603 14.1689C53.3123 14.1689 54.6645 14.6373 55.6052 15.574C56.5458 16.5107 57.0279 17.8221 57.0279 19.5082C57.0279 20.7377 56.8163 21.7329 56.4047 22.5174C56.005 23.2902 55.3818 23.9225 54.6175 24.344C53.8297 24.7772 52.8537 24.9997 51.6896 24.9997C50.5021 24.9997 49.5261 24.8124 48.7501 24.4377C47.9505 24.0396 47.292 23.419 46.857 22.6579C46.3749 21.8383 46.128 20.8196 46.128 19.5902ZM49.3733 19.6019C49.3733 20.6557 49.5731 21.4168 49.9612 21.8851C50.3492 22.3418 50.8901 22.576 51.5721 22.576C52.2658 22.576 52.8067 22.3535 53.1947 21.8968C53.5827 21.4402 53.7709 20.6323 53.7709 19.4614C53.7709 18.4778 53.571 17.7519 53.1712 17.3069C52.7714 16.8503 52.2305 16.6278 51.5485 16.6278C50.9489 16.6044 50.361 16.862 49.9729 17.3187C49.5731 17.7753 49.3733 18.5364 49.3733 19.6019Z" fill="black"/>
<path d="M56.6871 14.3564H59.9323V22.2483H65.0002V24.8242H56.6753V14.3564H56.6871Z" fill="black"/>
<path d="M53.1101 13.7526C56.3774 11.3008 57.3849 7.14448 55.3604 4.4693C53.336 1.79411 49.0461 1.61307 45.7788 4.06492C42.5115 6.51678 41.5039 10.6731 43.5284 13.3482C45.5529 16.0234 49.8427 16.2045 53.1101 13.7526Z" fill="white"/>
<path d="M53.1101 13.7526C56.3774 11.3008 57.3849 7.14448 55.3604 4.4693C53.336 1.79411 49.0461 1.61307 45.7788 4.06492C42.5115 6.51678 41.5039 10.6731 43.5284 13.3482C45.5529 16.0234 49.8427 16.2045 53.1101 13.7526Z" stroke="black" stroke-width="4" stroke-miterlimit="10"/>
<path d="M46.14 8.13907L47.3159 7.31945L48.7622 9.36851C49.0091 9.69636 49.1972 10.0476 49.3383 10.434C49.4206 10.7267 49.3971 11.0429 49.2795 11.3239C49.1267 11.6752 48.8797 11.9679 48.5505 12.1787C48.1625 12.448 47.8332 12.6002 47.551 12.647C47.2806 12.6939 46.9984 12.647 46.7397 12.5299C46.4575 12.3894 46.2106 12.1904 46.0225 11.9328L47.0337 10.9961C47.116 11.1249 47.2218 11.2419 47.3394 11.3356C47.4217 11.3942 47.5158 11.4293 47.6216 11.4293C47.7039 11.4293 47.7862 11.3942 47.845 11.3473C47.9626 11.2771 48.0449 11.1366 48.0331 10.9961C47.9979 10.797 47.9156 10.5979 47.7862 10.4457L46.14 8.13907ZM49.6675 9.43876L50.7375 8.59572C50.8551 8.73623 51.008 8.84161 51.1726 8.90015C51.4078 8.97041 51.6547 8.92357 51.8546 8.77135C51.9957 8.67768 52.1133 8.54888 52.1603 8.38496C52.2309 8.1742 52.1133 7.94002 51.9016 7.86977C51.8663 7.85806 51.8311 7.84635 51.7958 7.84635C51.6547 7.83464 51.4078 7.89318 51.0433 8.0454C50.4436 8.29129 49.9733 8.38496 49.6205 8.34983C49.2795 8.31471 48.962 8.13907 48.7739 7.84635C48.6328 7.6473 48.5623 7.41312 48.5505 7.17894C48.5505 6.90963 48.621 6.64033 48.7739 6.41786C48.9973 6.10172 49.2678 5.83241 49.597 5.62165C50.0908 5.28209 50.5259 5.11816 50.9022 5.11816C51.2784 5.11816 51.6312 5.2938 51.9604 5.65678L50.9022 6.48811C50.6905 6.2188 50.2907 6.16026 50.0203 6.37102L49.985 6.40615C49.8674 6.4764 49.7851 6.58178 49.7381 6.71058C49.7028 6.80425 49.7263 6.90963 49.7851 6.9916C49.8322 7.05014 49.9027 7.09698 49.985 7.09698C50.0791 7.10868 50.2437 7.06185 50.4789 6.95647C51.0668 6.71058 51.5136 6.57007 51.8193 6.52324C52.078 6.4764 52.3484 6.49982 52.5954 6.6052C52.8188 6.69887 53.0069 6.8628 53.1362 7.06185C53.3009 7.29603 53.3949 7.57704 53.4067 7.86977C53.4184 8.1742 53.3361 8.46692 53.1715 8.72452C52.9599 9.04066 52.6894 9.30997 52.372 9.52073C51.7252 9.96567 51.1961 10.153 50.7728 10.0828C50.3142 10.0125 49.938 9.77832 49.6675 9.43876Z" fill="black"/>
</g>
<defs>
<clipPath id="clip0_153_1025">
<rect width="65" height="25" fill="white"/>
</clipPath>
</defs>
</svg>
