<svg width="185" height="40" viewBox="0 0 185 40" fill="none" xmlns="http://www.w3.org/2000/svg">
<rect width="185" height="40" rx="2.5" fill="url(#paint0_linear_153_634)"/>
<path d="M21.6899 30.8596C20.0299 30.8596 18.4899 30.5896 17.0699 30.0496C15.6699 29.5096 14.4499 28.7496 13.4099 27.7696C12.3899 26.7896 11.5899 25.6396 11.0099 24.3196C10.4499 22.9996 10.1699 21.5596 10.1699 19.9996C10.1699 18.4396 10.4499 16.9996 11.0099 15.6796C11.5899 14.3596 12.3999 13.2096 13.4399 12.2296C14.4799 11.2496 15.6999 10.4896 17.0999 9.94965C18.4999 9.40965 20.0199 9.13965 21.6599 9.13965C23.3199 9.13965 24.8399 9.40965 26.2199 9.94965C27.6199 10.4896 28.8299 11.2496 29.8499 12.2296C30.8899 13.2096 31.6999 14.3596 32.2799 15.6796C32.8599 16.9796 33.1499 18.4196 33.1499 19.9996C33.1499 21.5596 32.8599 23.0096 32.2799 24.3496C31.6999 25.6696 30.8899 26.8196 29.8499 27.7996C28.8299 28.7596 27.6199 29.5096 26.2199 30.0496C24.8399 30.5896 23.3299 30.8596 21.6899 30.8596ZM21.6599 26.7196C22.5999 26.7196 23.4599 26.5596 24.2399 26.2396C25.0399 25.9196 25.7399 25.4596 26.3399 24.8596C26.9399 24.2596 27.3999 23.5496 27.7199 22.7296C28.0599 21.9096 28.2299 20.9996 28.2299 19.9996C28.2299 18.9996 28.0599 18.0896 27.7199 17.2696C27.3999 16.4496 26.9399 15.7396 26.3399 15.1396C25.7599 14.5396 25.0699 14.0796 24.2699 13.7596C23.4699 13.4396 22.5999 13.2796 21.6599 13.2796C20.7199 13.2796 19.8499 13.4396 19.0499 13.7596C18.2699 14.0796 17.5799 14.5396 16.9799 15.1396C16.3799 15.7396 15.9099 16.4496 15.5699 17.2696C15.2499 18.0896 15.0899 18.9996 15.0899 19.9996C15.0899 20.9796 15.2499 21.8896 15.5699 22.7296C15.9099 23.5496 16.3699 24.2596 16.9499 24.8596C17.5499 25.4596 18.2499 25.9196 19.0499 26.2396C19.8499 26.5596 20.7199 26.7196 21.6599 26.7196Z" fill="#FDFDFD"/>
<path d="M46.1324 30.8596C43.1524 30.8596 40.8224 30.0296 39.1424 28.3696C37.4624 26.7096 36.6224 24.3396 36.6224 21.2596V9.49965H41.4824V21.0796C41.4824 23.0796 41.8924 24.5196 42.7124 25.3996C43.5324 26.2796 44.6824 26.7196 46.1624 26.7196C47.6424 26.7196 48.7924 26.2796 49.6124 25.3996C50.4324 24.5196 50.8424 23.0796 50.8424 21.0796V9.49965H55.6424V21.2596C55.6424 24.3396 54.8024 26.7096 53.1224 28.3696C51.4424 30.0296 49.1124 30.8596 46.1324 30.8596Z" fill="#FDFDFD"/>
<path d="M64.4434 30.4996V13.4596H57.7234V9.49965H76.0234V13.4596H69.3034V30.4996H64.4434Z" fill="#FDFDFD"/>
<path d="M78.6384 30.4996V9.49965H88.1784C90.4584 9.49965 92.4684 9.93965 94.2084 10.8196C95.9483 11.6796 97.3083 12.8896 98.2884 14.4496C99.2684 16.0096 99.7584 17.8596 99.7584 19.9996C99.7584 22.1196 99.2684 23.9696 98.2884 25.5496C97.3083 27.1096 95.9483 28.3296 94.2084 29.2096C92.4684 30.0696 90.4584 30.4996 88.1784 30.4996H78.6384ZM83.4984 26.5096H87.9384C89.3384 26.5096 90.5484 26.2496 91.5684 25.7296C92.6084 25.1896 93.4084 24.4296 93.9684 23.4496C94.5484 22.4696 94.8383 21.3196 94.8383 19.9996C94.8383 18.6596 94.5484 17.5096 93.9684 16.5496C93.4084 15.5696 92.6084 14.8196 91.5684 14.2996C90.5484 13.7596 89.3384 13.4896 87.9384 13.4896H83.4984V26.5096Z" fill="#FDFDFD"/>
<path d="M113.624 30.8596C111.964 30.8596 110.424 30.5896 109.004 30.0496C107.604 29.5096 106.384 28.7496 105.344 27.7696C104.324 26.7896 103.524 25.6396 102.944 24.3196C102.384 22.9996 102.104 21.5596 102.104 19.9996C102.104 18.4396 102.384 16.9996 102.944 15.6796C103.524 14.3596 104.334 13.2096 105.374 12.2296C106.414 11.2496 107.634 10.4896 109.034 9.94965C110.434 9.40965 111.954 9.13965 113.594 9.13965C115.254 9.13965 116.774 9.40965 118.154 9.94965C119.554 10.4896 120.764 11.2496 121.784 12.2296C122.824 13.2096 123.634 14.3596 124.214 15.6796C124.794 16.9796 125.084 18.4196 125.084 19.9996C125.084 21.5596 124.794 23.0096 124.214 24.3496C123.634 25.6696 122.824 26.8196 121.784 27.7996C120.764 28.7596 119.554 29.5096 118.154 30.0496C116.774 30.5896 115.264 30.8596 113.624 30.8596ZM113.594 26.7196C114.534 26.7196 115.394 26.5596 116.174 26.2396C116.974 25.9196 117.674 25.4596 118.274 24.8596C118.874 24.2596 119.334 23.5496 119.654 22.7296C119.994 21.9096 120.164 20.9996 120.164 19.9996C120.164 18.9996 119.994 18.0896 119.654 17.2696C119.334 16.4496 118.874 15.7396 118.274 15.1396C117.694 14.5396 117.004 14.0796 116.204 13.7596C115.404 13.4396 114.534 13.2796 113.594 13.2796C112.654 13.2796 111.784 13.4396 110.984 13.7596C110.204 14.0796 109.514 14.5396 108.914 15.1396C108.314 15.7396 107.844 16.4496 107.504 17.2696C107.184 18.0896 107.024 18.9996 107.024 19.9996C107.024 20.9796 107.184 21.8896 107.504 22.7296C107.844 23.5496 108.304 24.2596 108.884 24.8596C109.484 25.4596 110.184 25.9196 110.984 26.2396C111.784 26.5596 112.654 26.7196 113.594 26.7196Z" fill="#FDFDFD"/>
<path d="M138.936 30.8596C137.276 30.8596 135.736 30.5896 134.316 30.0496C132.916 29.5096 131.696 28.7496 130.656 27.7696C129.636 26.7896 128.836 25.6396 128.256 24.3196C127.696 22.9996 127.416 21.5596 127.416 19.9996C127.416 18.4396 127.696 16.9996 128.256 15.6796C128.836 14.3596 129.646 13.2096 130.686 12.2296C131.726 11.2496 132.946 10.4896 134.346 9.94965C135.746 9.40965 137.266 9.13965 138.906 9.13965C140.566 9.13965 142.086 9.40965 143.466 9.94965C144.866 10.4896 146.076 11.2496 147.096 12.2296C148.136 13.2096 148.946 14.3596 149.526 15.6796C150.106 16.9796 150.396 18.4196 150.396 19.9996C150.396 21.5596 150.106 23.0096 149.526 24.3496C148.946 25.6696 148.136 26.8196 147.096 27.7996C146.076 28.7596 144.866 29.5096 143.466 30.0496C142.086 30.5896 140.576 30.8596 138.936 30.8596ZM138.906 26.7196C139.846 26.7196 140.706 26.5596 141.486 26.2396C142.286 25.9196 142.986 25.4596 143.586 24.8596C144.186 24.2596 144.646 23.5496 144.966 22.7296C145.306 21.9096 145.476 20.9996 145.476 19.9996C145.476 18.9996 145.306 18.0896 144.966 17.2696C144.646 16.4496 144.186 15.7396 143.586 15.1396C143.006 14.5396 142.316 14.0796 141.516 13.7596C140.716 13.4396 139.846 13.2796 138.906 13.2796C137.966 13.2796 137.096 13.4396 136.296 13.7596C135.516 14.0796 134.826 14.5396 134.226 15.1396C133.626 15.7396 133.156 16.4496 132.816 17.2696C132.496 18.0896 132.336 18.9996 132.336 19.9996C132.336 20.9796 132.496 21.8896 132.816 22.7296C133.156 23.5496 133.616 24.2596 134.196 24.8596C134.796 25.4596 135.496 25.9196 136.296 26.2396C137.096 26.5596 137.966 26.7196 138.906 26.7196Z" fill="#FDFDFD"/>
<path fill-rule="evenodd" clip-rule="evenodd" d="M154.049 30.4996V9.49965H163.139C165.019 9.49965 166.639 9.80965 167.999 10.4296C169.359 11.0296 170.408 11.8996 171.148 13.0396C171.889 14.1796 172.258 15.5396 172.258 17.1196C172.258 18.6796 171.889 20.0296 171.148 21.1696C170.408 22.2896 169.359 23.1496 167.999 23.7496L167.957 23.7677L172.648 30.4996H167.398L163.367 24.6482C163.291 24.6491 163.215 24.6496 163.139 24.6496H158.908V30.4996H154.049ZM166.229 19.8196C165.488 20.4596 164.368 20.7796 162.868 20.7796H158.908V13.4596H162.868C164.368 13.4596 165.488 13.7796 166.229 14.4196C166.969 15.0596 167.339 15.9596 167.339 17.1196C167.339 18.2596 166.969 19.1596 166.229 19.8196Z" fill="#FDFDFD"/>
<defs>
<linearGradient id="paint0_linear_153_634" x1="169.218" y1="-6.2751" x2="26.157" y2="128.203" gradientUnits="userSpaceOnUse">
<stop stop-color="#00C4F0"/>
<stop offset="1" stop-color="#0083E8"/>
</linearGradient>
</defs>
</svg>
